Coordinates
version=1
nRows=20
nColumns=23
inDegrees=yes

Units are S.I. units (second, meters, Newtons, ...)
If the header above contains a line with 'inDegrees', this indicates whether rotational values are in degrees (yes) or radians (no).

endheader
time	pelvis_tilt	pelvis_list	pelvis_rotation	pelvis_tx	pelvis_ty	pelvis_tz	hip_flexion_r	hip_adduction_r	hip_rotation_r	knee_angle_r	knee_angle_r_beta	ankle_angle_r	subtalar_angle_r	mtp_angle_r	hip_flexion_l	hip_adduction_l	hip_rotation_l	knee_angle_l	knee_angle_l_beta	ankle_angle_l	subtalar_angle_l	mtp_angle_l
     15.00000000	     -8.37524692	     10.04590824	      5.70590134	      2.29177530	      0.97894309	      0.99758624	      0.74950371	    -17.95685356	    -14.36655278	     84.93932662	      1.48247091	    -10.73459006	    -18.39757263	      0.00000000	     33.14984958	     13.56498922	     -9.69526444	     22.63256971	      0.39501286	      3.79820523	     -3.84159211	      0.00000000
     15.00666667	     -8.34194733	     10.34973592	      6.08960687	      2.28909538	      0.97456064	      0.99705364	      3.14740098	    -18.63311527	    -13.80481731	     88.61019104	      1.54653958	    -10.48542380	    -19.82282606	      0.00000000	     33.67791980	     13.67437729	    -10.00347153	     26.74900296	      0.46685817	      4.66981992	     -4.63864479	      0.00000000
     15.01333333	     -8.20373424	     10.61039466	      6.37112876	      2.28618474	      0.97046115	      0.99668736	      5.63414864	    -19.18160428	    -12.99477359	     92.07354426	      1.60698650	    -10.14633395	    -20.86716608	      0.00000000	     33.92546205	     13.77353289	     -9.93598123	     30.67016975	      0.53529544	      6.13054053	     -5.39191549	      0.00000000
     15.02000000	     -7.87922997	     10.78590401	      6.63975160	      2.28309173	      0.96694301	      0.99638060	      8.04921068	    -19.54124499	    -12.09098110	     95.24188487	      1.66228448	     -9.70366075	    -21.41637087	      0.00000000	     33.72342788	     13.92811786	     -9.34602295	     34.21932497	      0.59723989	      8.09401714	     -6.15130366	      0.00000000
     15.02666667	     -7.10891507	     11.12224227	      6.78266046	      2.28011523	      0.96440360	      0.99615204	     10.04499359	    -19.99164913	    -11.03981445	     98.05066379	      1.71130692	     -9.26628629	    -21.73894989	      0.00000000	     32.66071360	     14.24587532	     -8.67977167	     37.15467204	      0.64847136	     10.25651756	     -6.80415835	      0.00000000
     15.03333333	     -7.19091878	     11.19142614	      6.74328509	      2.27662407	      0.96099864	      0.99635256	     13.42411613	    -19.95758662	     -9.36440755	    100.80780611	      1.75942813	     -8.61932521	    -21.47496250	      0.00000000	     32.42873268	     14.17292625	     -8.32490972	     39.91892212	      0.69671662	     12.82512210	     -6.63634887	      0.00000000
     15.04000000	     -6.75634775	     11.35088267	      6.62164051	      2.27345119	      0.95891958	      0.99667782	     16.20584882	    -19.88260140	     -7.71287335	    103.07958736	      1.79907819	     -8.03508560	    -20.96112503	      0.00000000	     31.17999024	     14.21464028	     -7.82796055	     41.92831820	      0.73178720	     15.44750904	     -6.40624563	      0.00000000
     15.04666667	     -6.39595107	     11.42350346	      6.44290993	      2.27046677	      0.95727316	      0.99710084	     19.11947330	    -19.56526545	     -5.96907022	    104.97661401	      1.83218755	     -7.44402602	    -20.10527229	      0.00000000	     29.68795282	     14.15770149	     -7.36479218	     43.41093385	      0.75766373	     18.04474205	     -5.94944210	      0.00000000
     15.05333333	     -6.15094938	     11.37361579	      6.19508008	      2.26770597	      0.95605515	      0.99759257	     22.17738092	    -18.97200811	     -4.17920839	    106.48412883	      1.85849865	     -6.82061232	    -18.94195810	      0.00000000	     28.00959855	     13.96474236	     -6.93866655	     44.36530342	      0.77432062	     20.47841192	     -5.37078250	      0.00000000
     15.06000000	     -6.04998533	     11.21913263	      5.88692306	      2.26523992	      0.95521612	      0.99812133	     25.35622954	    -18.13262008	     -2.40073566	    107.59216140	      1.87783747	     -6.20753719	    -17.56721164	      0.00000000	     26.19906667	     13.66148474	     -6.56720957	     44.82133168	      0.78227981	     22.72358634	     -4.70618385	      0.00000000
     15.06666667	     -6.08991042	     10.94625683	      5.55231078	      2.26316960	      0.95475351	      0.99858498	     28.57047694	    -17.08530233	     -0.73899583	    108.27782322	      1.88980452	     -5.61155957	    -16.02888440	      0.00000000	     24.27018598	     13.25821570	     -6.20412530	     44.80265236	      0.78195380	     24.63049017	     -4.07433640	      0.00000000
     15.07333333	     -6.38258469	     10.61060176	      5.21350794	      2.26154582	      0.95450216	      0.99888179	     31.91115375	    -15.94326243	      0.79014820	    108.55089381	      1.89457050	     -5.04958235	    -14.42192641	      0.00000000	     22.37772286	     12.79865512	     -5.94336554	     44.36506603	      0.77431648	     26.23563038	     -3.33667288	      0.00000000
     15.08000000	     -6.61407381	     10.08707911	      4.85972247	      2.26048725	      0.95497631	      0.99908187	     34.92432800	    -14.57286047	      2.00471793	    108.32824293	      1.89068451	     -4.51414334	    -12.85050312	      0.00000000	     20.18258049	     12.20575002	     -5.52898442	     43.47845302	      0.75884216	     27.27425814	     -2.96644584	      0.00000000
     15.08666667	     -7.00570641	      9.53937377	      4.52129210	      2.25987292	      0.95575764	      0.99914456	     37.89556353	    -13.22793375	      3.00925341	    107.69933358	      1.87970797	     -3.99848668	    -11.28952707	      0.00000000	     17.98613681	     11.60000478	     -5.18291699	     42.23776211	      0.73718802	     27.91702891	     -2.46484699	      0.00000000
     15.09333333	     -7.59556446	      8.83885501	      4.44767871	      2.25976368	      0.95688779	      0.99877680	     40.72392486	    -11.95440585	      3.51859102	    106.60506449	      1.86060937	     -3.69444892	    -10.39797406	      0.00000000	     15.86250310	     11.00099900	     -4.41932016	     40.74120533	      0.71106817	     28.23142712	     -1.94771287	      0.00000000
     15.10000000	     -7.95510689	      8.24689601	      3.86833705	      2.26022773	      0.95850398	      0.99907257	     43.23274265	    -10.54242525	      4.22295426	    105.22498168	      1.83652239	     -2.85984361	     -8.59194513	      0.00000000	     13.35035144	     10.19222837	     -4.61866915	     38.87338150	      0.67846850	     28.13650413	     -1.24526368	      0.00000000
     15.10666667	     -8.00197231	      7.27341351	      3.58364049	      2.26146324	      0.96125038	      0.99905372	     44.88317826	     -9.07224486	      4.13407171	    103.25804072	      1.80219279	     -2.24048217	     -7.64635212	      0.00000000	     10.41831214	      9.01247325	     -4.57594705	     36.85836584	      0.64329984	     27.83066917	      0.10321931	      0.00000000
     15.11333333	     -8.53965186	      6.52681569	      3.20071073	      2.26272916	      0.96348314	      0.99915805	     47.00152727	     -7.78194034	      4.22257595	    101.10301348	      1.76458047	     -1.65120414	     -6.88241554	      0.00000000	      7.99192887	      8.17206088	     -4.56019781	     34.64577879	      0.60468291	     26.93528480	      0.80520992	      0.00000000
     15.12000000	     -8.58312789	      5.54405457	      2.91050670	      2.26466138	      0.96694845	      0.99924602	     48.18360087	     -6.49062102	      3.78847465	     98.45865609	      1.71842773	     -1.05197709	     -6.48907664	      0.00000000	      4.94288822	      7.04786438	     -4.51093733	     32.15245361	      0.56116618	     25.31512062	      1.59337748	      0.00000000
     15.12666667	     -8.84452587	      4.61016703	      2.63737558	      2.26681723	      0.97030781	      0.99935082	     49.41655163	     -5.33424105	      3.27267121	     95.55283484	      1.66771158	     -0.48917541	     -6.35314435	      0.00000000	      2.15104042	      6.01839238	     -4.48398407	     29.55712221	      0.51586910	     22.95139012	      2.09349937	      0.00000000
